<?xml version="1.0" encoding="UTF-8"?>
<svg id="Layer_3" data-name="Layer 3" xmlns="http://www.w3.org/2000/svg" viewBox="0 0 1859.06 483.4">
  <defs>
    <style>
      .cls-1 {
        fill: #212529;
      }

      .cls-2 {
        fill: #823189;
      }
    </style>
  </defs>
  <path class="cls-1" d="m430.93,303.78c-3.81,1.69-8.19,2.54-13.14,2.54-5.76,0-10.73-1.1-14.95-3.3-4.2-2.21-7.05-5.64-8.51-10.33l-18.7,7.45c-.44-2.27-.67-4.63-.67-7.03v-26.58c1.33,2.16,2.96,4.11,4.93,5.85,6,5.35,13.83,8.89,23.46,10.64l17.84,3.3c5.76,1.18,9.77,2.52,12.03,4.07,2.28,1.53,3.42,3.48,3.42,5.82,0,3.36-1.91,5.88-5.72,7.56Z"/>
  <path class="cls-1" d="m505.18,232.42v60.7c0,20.55-16.66,37.21-37.21,37.21h-43.16c3.9-.36,7.63-1.01,11.23-1.95,5.88-1.54,11.04-3.92,15.45-7.14,4.4-3.22,7.92-7.21,10.52-11.96,2.62-4.76,3.92-10.36,3.92-16.8,0-9.07-2.89-15.87-8.63-20.43-5.74-4.52-14.63-7.97-26.67-10.31l-18.46-3.73c-4.4-.88-7.54-2.01-9.42-3.4-1.88-1.39-2.81-3.18-2.81-5.38,0-5.85,5.49-8.77,16.45-8.77,4.55,0,8.53.7,11.93,2.09,3.42,1.39,5.65,4.05,6.73,8l25.67-10.31c-1.87-4.25-4.31-7.91-7.32-10.98-3.01-3.07-6.46-5.59-10.34-7.57-3.87-1.98-8.04-3.4-12.53-4.28-4.48-.88-9.12-1.32-13.94-1.32-6.15,0-12,.73-17.55,2.19-5.55,1.47-10.39,3.63-14.53,6.47-3.95,2.71-7.12,6.08-9.54,10.11v-2.45c0-20.55,16.66-37.19,37.21-37.19h55.8c20.55,0,37.21,16.65,37.21,37.19Z"/>
  <g>
    <path class="cls-2" d="m139.69,195.4v30.89h25.04v101.21h40.75v-132.09h-65.78Zm62.59-62.85c-4.63-4.61-10.3-6.92-17.05-6.92s-12.43,2.31-17.04,6.92c-4.61,4.63-6.92,10.3-6.92,17.05s2.31,12.2,6.92,16.9c4.61,4.7,10.3,7.06,17.04,7.06s12.43-2.36,17.05-7.06c4.61-4.7,6.92-10.34,6.92-16.9s-2.31-12.43-6.92-17.05Z"/>
    <path class="cls-2" d="m354.08,223.37c-1.44-6.92-3.87-12.75-7.33-17.45-3.46-4.7-8.03-8.25-13.71-10.66-5.68-2.39-12.78-3.58-21.3-3.58-4.97,0-9.63.67-13.99,2-4.35,1.33-8.25,3.01-11.72,5.05-3.46,2.04-6.49,4.31-9.06,6.79-2.57,2.49-4.57,4.97-5.99,7.47l-5.07-17.58h-35.41v132.09h40.47v-67.91c0-12.06,1.95-21.17,5.85-27.29,3.92-6.12,10.13-9.19,18.64-9.19,4.79,0,8.57.89,11.32,2.66,2.75,1.78,4.79,4.22,6.12,7.33,1.33,3.1,2.13,6.74,2.4,10.92.26,4.17.39,8.56.39,13.18v70.3h40.49v-80.43c0-8.87-.73-16.77-2.13-23.69Z"/>
    <path class="cls-2" d="m609.2,195.4v69.5c0,12.26-1.78,21.05-5.32,26.37-3.55,5.34-9.6,8-18.11,8-4.97,0-8.78-.94-11.46-2.8-2.66-1.87-4.66-4.35-5.99-7.45-1.33-3.11-2.13-6.76-2.39-10.93-.27-4.16-.41-8.65-.41-13.44v-69.24h-40.47v79.36c0,9.06.76,17.05,2.27,23.96,1.5,6.92,3.99,12.75,7.45,17.45,3.46,4.7,8.16,8.3,14.11,10.79,5.96,2.48,13.27,3.72,21.97,3.72,10.13,0,18.07-2,23.84-5.99,5.76-3.99,10.6-9.28,14.51-15.84l5.59,18.64h35.15v-132.09h-40.75Z"/>
    <path class="cls-2" d="m732.76,197.26c-7.11,4.26-12.7,11.72-16.78,22.38l-7.2-24.24h-31.95v132.09h40.47v-66.58c0-10.64,2.57-18.23,7.73-22.77,5.14-4.52,12.69-6.79,22.63-6.79,1.95,0,3.73.05,5.32.14,1.6.09,3.46.32,5.59.67v-40.47c-10.11-.54-18.73,1.33-25.82,5.58Z"/>
    <path class="cls-2" d="m894.42,316.97c-.53-4.17-.98-8.56-1.33-13.18-.36-4.61-.67-9.36-.94-14.24-.27-4.88-.39-9.46-.39-13.71v-29.03c0-9.95-1.3-18.41-3.87-25.43-2.57-7.02-6.35-12.75-11.31-17.19-4.97-4.43-11.1-7.62-18.38-9.59-7.27-1.95-15.62-2.92-25.04-2.92-15.27,0-28.05,2.92-38.34,8.78-10.3,5.85-17.67,13.23-22.1,22.1l34.09,12.25c1.41-5.32,4.16-9.27,8.25-11.85,4.08-2.57,8.97-3.86,14.63-3.86,7.11,0,12.56,1.56,16.39,4.66,3.81,3.11,5.71,8.48,5.71,16.12v5.05c-12.78.89-24.54,2.36-35.27,4.4-10.75,2.04-19.97,4.84-27.7,8.39-7.73,3.55-13.76,8.12-18.11,13.71-4.35,5.59-6.53,12.38-6.53,20.38,0,6.03,1.21,11.45,3.6,16.24,2.4,4.79,5.68,8.87,9.86,12.25,4.17,3.37,9.01,5.96,14.51,7.73,5.5,1.77,11.35,2.66,17.57,2.66,9.6,0,18.11-1.47,25.57-4.38,7.47-2.93,13.68-7.86,18.64-14.79l4.79,15.98h37.56c-.71-2.84-1.33-6.35-1.86-10.52Zm-41.82-44.87c0,6.03-.71,11.05-2.13,15.04-1.42,3.99-3.37,7.15-5.85,9.46-2.49,2.3-5.41,3.95-8.78,4.91-3.39.98-7.11,1.47-11.19,1.47-5.32,0-9.77-1.29-13.32-3.86-3.55-2.57-5.32-5.99-5.32-10.25,0-3.55,1.1-6.44,3.33-8.66,2.22-2.21,5.37-4.08,9.45-5.59,4.08-1.5,9.01-2.71,14.79-3.58,5.76-.89,12.11-1.6,19.03-2.13v3.19Z"/>
    <path class="cls-2" d="m1041.95,223.37c-1.42-6.92-3.87-12.75-7.33-17.45-3.46-4.7-8.03-8.25-13.71-10.66-5.68-2.39-12.78-3.58-21.3-3.58-4.97,0-9.63.67-13.99,2-4.34,1.33-8.25,3.01-11.72,5.05-3.46,2.04-6.47,4.31-9.04,6.79-2.59,2.49-4.58,4.97-6,7.47l-5.05-17.58h-35.42v132.09h40.47v-67.91c0-12.06,1.95-21.17,5.87-27.29,3.9-6.12,10.11-9.19,18.64-9.19,4.79,0,8.56.89,11.31,2.66,2.75,1.78,4.79,4.22,6.12,7.33,1.35,3.1,2.13,6.74,2.4,10.92.27,4.17.39,8.56.39,13.18v70.3h40.49v-80.43c0-8.87-.71-16.77-2.13-23.69Z"/>
    <path class="cls-2" d="m1146.07,295.92c-3.92,2.22-8.71,3.34-14.38,3.34-3.55,0-7.06-.67-10.52-2-3.46-1.35-6.53-3.46-9.19-6.4-2.66-2.93-4.84-6.88-6.52-11.85-1.69-4.97-2.54-11.01-2.54-18.11s.8-12.82,2.4-17.7c1.6-4.88,3.73-8.78,6.4-11.72,2.66-2.93,5.72-5.06,9.18-6.4,3.46-1.33,7.06-2,10.79-2,5.14,0,9.8,1.16,13.99,3.46,4.16,2.31,7.32,6.3,9.45,11.99l33.82-12.26c-3.02-6.56-6.79-12.06-11.32-16.51-4.52-4.43-9.4-7.98-14.65-10.64-5.23-2.66-10.73-4.57-16.51-5.73-5.76-1.15-11.49-1.72-17.17-1.72-10.11,0-19.31,1.63-27.56,4.91-8.25,3.3-15.36,7.95-21.3,13.99-5.96,6.05-10.57,13.27-13.85,21.71-3.28,8.44-4.93,17.89-4.93,28.36s1.47,20.02,4.4,28.62c2.93,8.62,7.27,15.98,13.05,22.1,5.76,6.12,12.87,10.89,21.3,14.26,8.44,3.36,18.07,5.05,28.89,5.05,5.32,0,10.75-.53,16.25-1.6,5.49-1.06,10.87-2.83,16.1-5.32,5.25-2.48,10.16-5.76,14.79-9.86,4.61-4.07,8.6-9.13,11.99-15.18l-33.03-11.97c-2.3,3.9-5.41,6.97-9.31,9.18Z"/>
    <path class="cls-2" d="m1335.29,239.33c-2.93-9.75-7.33-18.14-13.18-25.16-5.87-7.02-13.14-12.52-21.85-16.51-8.69-3.99-18.46-5.99-29.29-5.99-9.59,0-18.69,1.59-27.3,4.79-8.6,3.19-16.15,7.82-22.63,13.85-6.49,6.03-11.58,13.3-15.32,21.83-3.72,8.53-5.59,18.02-5.59,28.5s1.78,20.59,5.34,29.29c3.54,8.71,8.51,16.07,14.91,22.1,6.4,6.05,14.03,10.66,22.91,13.85,8.88,3.19,18.64,4.79,29.29,4.79s21.44-2.39,31.83-7.18c10.39-4.79,19.05-12.26,25.97-22.38l-32.23-11.72c-2.48,3.02-5.99,5.41-10.51,7.2-4.54,1.77-9.9,2.66-16.12,2.66-3.73,0-7.36-.57-10.92-1.74-3.55-1.15-6.7-2.87-9.45-5.19-2.77-2.31-5.07-5.2-6.92-8.66-1.88-3.46-2.98-7.5-3.34-12.11h97.74c.71-11.72-.41-22.47-3.33-32.23Zm-94.42,8.27c1.24-9.06,4.84-15.63,10.79-19.72,5.94-4.08,12.73-6.12,20.37-6.12s14.74,2.18,20.24,6.52c5.5,4.35,8.44,10.79,8.78,19.32h-60.19Z"/>
    <path class="cls-2" d="m1405.32,294.47c-1.33-3.21-3.19-5.96-5.59-8.25-2.39-2.31-5.16-4.13-8.25-5.47-3.1-1.33-6.44-2-9.98-2-7.29,0-13.46,2.49-18.52,7.47-5.05,4.96-7.59,11.1-7.59,18.37s2.54,13.44,7.59,18.51c5.07,5.06,11.23,7.59,18.52,7.59,3.54,0,6.88-.67,9.98-2,3.1-1.33,5.87-3.19,8.25-5.59,2.4-2.39,4.26-5.19,5.59-8.39,1.33-3.19,2-6.56,2-10.11s-.67-6.92-2-10.11Z"/>
    <path class="cls-2" d="m1513.64,195.64c-15.51,0-29.18,6.56-37.59,17.24v-83.8l-45.12.83-.99,198.79,43.32-.04.16-12.35c8.4,10.2,21.03,16.51,36.53,16.51,34.7,0,55.47-28.64,55.47-68.47,0-43.23-18.4-68.72-51.79-68.72Zm-15.77,109.26c-8.94,0-16.57-4.6-21.82-12.38v-53.66c6.04-9.47,14.19-15.05,23.66-15.05,13.15,0,22.61,7.77,22.61,40.55,0,30.11-9.98,40.54-24.45,40.54Z"/>
    <path class="cls-2" d="m1653.19,306.47h-19.42c-12.39,0-14.09-3.87-14.09-7.76,0-2.92,1.46-5.83,4.14-7.29,4.6.98,9.47,1.46,14.8,1.46,33.51,0,54.15-18.21,54.15-43.22,0-16.76-8.01-26.23-24.28-33.28,16.58,1.8,28.15,1.29,38.53-2.28l-7.83-21.66c-21.44,4.47-34.59,7.93-63.25,7.2-33.75,0-56.57,17.96-56.57,47.1,0,16.76,6.56,28.18,23.08,36.92-9.24,5.82-15.3,15.29-15.3,24.76,0,13.84,11.41,25.5,39.58,25.5h18.69c12.87,0,18.46,5.1,18.46,12.63,0,8.26-5.33,14.57-27.93,14.57s-28.16-4.87-28.16-16.03h-34.48c0,25.5,12.86,41.52,61.67,41.52,44.19,0,67.5-16.27,67.5-42.73,0-21.61-19.19-37.4-49.29-37.4Zm-16.27-81.58c12.86,0,19.42,6.55,19.42,20.88s-6.8,22.33-19.42,22.33c-11.66,0-19.42-7.76-19.42-21.85,0-13.36,7.53-21.37,19.42-21.37Z"/>
  </g>
</svg>